<?xml version="1.0" encoding="UTF-8"?>
<svg width="70px" height="70px" viewBox="0 0 70 70" version="1.1" xmlns="http://www.w3.org/2000/svg" xmlns:xlink="http://www.w3.org/1999/xlink">
    <!-- Generator: Sketch 48.2 (47327) - http://www.bohemiancoding.com/sketch -->
    <title>rotationLogo</title>
    <desc>Created with Sketch.</desc>
    <defs></defs>
    <g id="Artboard-2" stroke="none" stroke-width="1" fill="none" fill-rule="evenodd" transform="translate(-1779.000000, -612.000000)">
        <g id="rotationLogo" transform="translate(1779.000000, 612.000000)">
            <rect id="Rectangle-5" fill="#620000" x="0" y="0" width="70" height="70" rx="8"></rect>
            <path d="M21.3282003,51.2262788 L23.9943077,51.2262788 L17.5657002,62.125 L24.7761553,62.125 L31.2047628,51.2262788 L39.3558427,51.2262788 L45.7844503,62.125 L52.9949053,62.125 L46.5662978,51.2262788 L49.546875,51.2262788 C52.2129825,51.2262788 54.25,49.2030421 54.25,46.5549712 L54.25,15.4149136 C54.25,12.299712 52.5245175,9.1875 35.4375,9.1875 C18.3504825,9.1875 16.625,12.3027016 16.625,15.4149136 L16.625,46.5549712 C16.625,49.2030421 18.6620175,51.2262788 21.328125,51.2262788 L21.3282003,51.2262788 Z M47.630787,47.939134 C45.9058565,47.939134 44.4953704,46.5382955 44.4953704,44.8251634 C44.4953704,43.1120313 45.9058565,41.7111928 47.630787,41.7111928 C49.3557176,41.7111928 50.7662037,43.1120313 50.7662037,44.8251634 C50.7632624,46.5382955 49.3527837,47.939134 47.630787,47.939134 Z M30.7336224,13.6854575 L40.1413776,13.6854575 C41.0821531,13.6854575 41.7083333,14.3076758 41.7083333,15.2424428 C41.7083333,16.1772098 41.0821306,16.7994281 40.1413776,16.7994281 L30.7336224,16.7994281 C29.7928469,16.7994281 29.1666667,16.1772098 29.1666667,15.2424428 C29.1666667,14.3105699 29.7928694,13.6854575 30.7336224,13.6854575 Z M19.7604167,26.3146372 C19.7604167,23.6665963 21.7975645,21.6433824 24.4638427,21.6433824 L46.4111573,21.6433824 C49.0774355,21.6433824 51.1145833,23.6665963 51.1145833,26.3146372 L51.1145833,32.5419805 C51.1145833,35.0323198 49.0774355,37.2132353 46.4111573,37.2132353 L24.4638427,37.2132353 C21.7975645,37.2132353 19.7604167,35.0323198 19.7604167,32.5419805 L19.7604167,26.3146372 Z M22.8958333,41.7111928 C24.6207639,41.7111928 26.03125,43.1120313 26.03125,44.8251634 C26.03125,46.5382955 24.6207639,47.939134 22.8958333,47.939134 C21.1709028,47.939134 19.7604167,46.5382955 19.7604167,44.8251634 C19.763358,43.1120313 21.1738366,41.7111928 22.8958333,41.7111928 Z" id="Page-1" fill="#FDB522"></path>
        </g>
    </g>
</svg>